<svg width="120" height="18" viewBox="0 0 120 18" fill="none" xmlns="http://www.w3.org/2000/svg">
<g clip-path="url(#clip0_126_744)">
<path d="M17.7002 16.6429C17.1246 16.6429 16.5997 16.3104 16.3531 15.7879L9.44583 1.17345H7.44084L8.08293 2.53338L1.82128 15.7861C1.5746 16.3104 1.04798 16.6429 0.472379 16.6429H0V17.2463H4.40887V16.6429H3.59708C3.51485 16.6429 3.46236 16.5567 3.49735 16.4828L6.26165 10.6314H11.9109L14.6752 16.4828C14.7102 16.5567 14.656 16.6429 14.5755 16.6429H13.7637V17.2463H18.1726V16.6429H17.7002ZM6.87049 9.34536L9.08717 4.65509L11.3039 9.34536H6.87224H6.87049Z" fill="#292929"/>
<path d="M57.2558 1.17169V1.77161H57.3975C58.0414 1.77161 58.5627 2.29412 58.5662 2.94154V17.2604H60.377V2.01087C60.377 1.87892 60.4837 1.77161 60.615 1.77161H61.2098V1.17169H57.2558Z" fill="#292929"/>
<path d="M79.86 1.184V1.78392H80.0017C80.6456 1.78392 81.1669 2.30643 81.1704 2.95385V17.2727H82.9812V2.02318C82.9812 1.89124 83.088 1.78392 83.2192 1.78392H83.814V1.184H79.86Z" fill="#292929"/>
<path d="M101.32 2.99432V1.17345H87.4094C86.9807 1.16289 86.6343 0.811034 86.6343 0.376489V0H86.0185V4.16952H86.6343V3.09459C86.6343 3.0383 86.6798 2.99432 86.734 2.99432H92.9782V16.4212C92.9782 16.5532 92.8715 16.6605 92.7402 16.6605H92.1454V17.2604H96.0994V16.6605H95.9577C95.3138 16.6605 94.7907 16.1362 94.789 15.4888V2.99432H101.317H101.32Z" fill="#292929"/>
<path d="M55.8229 16.6587C55.3296 16.6587 54.8677 16.4124 54.5895 16.0025L50.4343 9.87315C52.3431 9.39462 53.7585 7.6582 53.7585 5.59103C53.7585 3.15265 51.7937 1.17697 49.3688 1.17697H37.6276V2.98376H49.3881C50.821 2.98376 51.9827 4.15193 51.9827 5.59279C51.9827 7.03365 50.821 8.20182 49.3881 8.20182H49.3006L48.6165 7.31162H46.6116L47.2956 8.20182H41.9508V5.54353C41.9508 4.97704 42.4074 4.5161 42.9725 4.5161H43.9225V4.03934H38.8593V4.5161C39.5661 4.5161 40.14 5.09315 40.14 5.80391V15.4765C40.14 16.1239 39.6151 16.6482 38.9713 16.6482H38.8296V17.2481H42.7765V16.6482H42.1817C42.0697 16.6482 41.9752 16.569 41.9508 16.4652V10.0069H48.5203L52.9134 16.4846C52.9642 16.5585 52.9117 16.6587 52.8225 16.6587H52.0527V17.2622H56.4615V16.6587H55.8282H55.8229Z" fill="#292929"/>
<path d="M30.9111 1.17521H19.1698V2.98024H30.9303C32.3632 2.98024 33.5249 4.14841 33.5249 5.58927C33.5249 7.03013 32.3632 8.1983 30.9303 8.1983H23.4912V5.54353C23.4912 4.97704 23.9479 4.5161 24.513 4.5161H25.463V4.03933H20.3998V4.5161C21.1066 4.5161 21.6804 5.09315 21.6804 5.8039V15.5996C21.6175 16.189 21.1206 16.6464 20.5187 16.6464H20.377V17.2463H21.6804H23.4912H24.324V16.6464H23.7292C23.598 16.6464 23.493 16.5409 23.4912 16.4089V10.0033H30.9111C33.336 10.0033 35.3007 8.02765 35.3007 5.58927C35.3007 3.15089 33.336 1.17521 30.9111 1.17521Z" fill="#292929"/>
<path d="M75.1135 12.9554L75.1362 12.9748C75.2465 13.0715 75.2605 13.2404 75.1642 13.3495C74.0393 14.6056 72.4087 15.3991 70.5927 15.3991C67.1968 15.3991 64.4447 12.637 64.4447 9.22925C64.4447 5.8215 67.1968 3.05941 70.5927 3.05941C72.4087 3.05941 74.0375 3.85109 75.1625 5.10899C75.2605 5.21806 75.2465 5.38871 75.1345 5.48371L75.1152 5.50131L75.5036 5.9552L77.6538 4.08332L77.2637 3.63118L77.2287 3.66109C76.9663 3.8898 76.5709 3.87748 76.3277 3.62766C74.8738 2.12699 72.8408 1.19456 70.5909 1.19456C66.168 1.19456 62.5832 4.79231 62.5832 9.23101C62.5832 13.6697 66.168 17.2675 70.5909 17.2675C72.8408 17.2675 74.8738 16.3333 76.3277 14.8344C76.5709 14.5845 76.9663 14.5722 77.2287 14.8009L77.2637 14.8308L77.6538 14.3787L75.5036 12.5068L75.1135 12.9589V12.9554Z" fill="#292929"/>
<path d="M114.186 15.4906V7.82005L120 1.17345H117.587L112.157 7.38199L107.354 1.89476C107.319 1.85429 107.347 1.79096 107.401 1.79096H107.951V1.17521H103.524V1.79096H104.175C104.604 1.79096 105.012 1.97568 105.295 2.29939L112.374 10.3851V16.423C112.374 16.5549 112.267 16.6623 112.136 16.6623H111.541V17.2622H115.495V16.6623H115.353C114.709 16.6623 114.186 16.138 114.185 15.4906H114.186Z" fill="#292929"/>
</g>
<defs>
<clipPath id="clip0_126_744">
<rect width="120" height="17.2727" fill="white"/>
</clipPath>
</defs>
</svg>
