<svg width="686" height="99" viewBox="0 0 686 99" fill="none" xmlns="http://www.w3.org/2000/svg">
<g clip-path="url(#clip0_166_1829)">
<path d="M101.17 94.6C97.88 94.6 94.88 92.71 93.47 89.74L53.99 6.67001H42.53L46.2 14.4L10.41 89.73C9 92.71 5.99 94.6 2.7 94.6H0V98.03H25.2V94.6H20.56C20.09 94.6 19.79 94.11 19.99 93.69L35.79 60.43H68.08L83.88 93.69C84.08 94.11 83.77 94.6 83.31 94.6H78.67V98.03H103.87V94.6H101.17ZM39.27 53.12L51.94 26.46L64.61 53.12H39.28H39.27Z" fill="#231F20"/>
<path d="M327.26 6.66V10.07H328.07C331.75 10.07 334.73 13.04 334.75 16.72V98.11H345.1V11.43C345.1 10.68 345.71 10.07 346.46 10.07H349.86V6.66H327.26Z" fill="#231F20"/>
<path d="M456.46 6.73001V10.14H457.27C460.95 10.14 463.93 13.11 463.95 16.79V98.18H474.3V11.5C474.3 10.75 474.91 10.14 475.66 10.14H479.06V6.73001H456.46Z" fill="#231F20"/>
<path d="M579.12 17.02V6.67H499.61C497.16 6.61 495.18 4.61 495.18 2.14V0H491.66V23.7H495.18V17.59C495.18 17.27 495.44 17.02 495.75 17.02H531.44V93.34C531.44 94.09 530.83 94.7 530.08 94.7H526.68V98.11H549.28V94.7H548.47C544.79 94.7 541.8 91.72 541.79 88.04V17.02H579.1H579.12Z" fill="#231F20"/>
<path d="M319.07 94.69C316.25 94.69 313.61 93.29 312.02 90.96L288.27 56.12C299.18 53.4 307.27 43.53 307.27 31.78C307.27 17.92 296.04 6.69 282.18 6.69H215.07V16.96H282.29C290.48 16.96 297.12 23.6 297.12 31.79C297.12 39.98 290.48 46.62 282.29 46.62H281.79L277.88 41.56H266.42L270.33 46.62H239.78V31.51C239.78 28.29 242.39 25.67 245.62 25.67H251.05V22.96H222.11V25.67C226.15 25.67 229.43 28.95 229.43 32.99V87.97C229.43 91.65 226.43 94.63 222.75 94.63H221.94V98.04H244.5V94.63H241.1C240.46 94.63 239.92 94.18 239.78 93.59V56.88H277.33L302.44 93.7C302.73 94.12 302.43 94.69 301.92 94.69H297.52V98.12H322.72V94.69H319.1H319.07Z" fill="#231F20"/>
<path d="M176.68 6.67999H109.57V16.94H176.79C184.98 16.94 191.62 23.58 191.62 31.77C191.62 39.96 184.98 46.6 176.79 46.6H134.27V31.51C134.27 28.29 136.88 25.67 140.11 25.67H145.54V22.96H116.6V25.67C120.64 25.67 123.92 28.95 123.92 32.99V88.67C123.56 92.02 120.72 94.62 117.28 94.62H116.47V98.03H123.92H134.27H139.03V94.62H135.63C134.88 94.62 134.28 94.02 134.27 93.27V56.86H176.68C190.54 56.86 201.77 45.63 201.77 31.77C201.77 17.91 190.54 6.67999 176.68 6.67999Z" fill="#231F20"/>
<path d="M429.33 73.64L429.46 73.75C430.09 74.3 430.17 75.26 429.62 75.88C423.19 83.02 413.87 87.53 403.49 87.53C384.08 87.53 368.35 71.83 368.35 52.46C368.35 33.09 384.08 17.39 403.49 17.39C413.87 17.39 423.18 21.89 429.61 29.04C430.17 29.66 430.09 30.63 429.45 31.17L429.34 31.27L431.56 33.85L443.85 23.21L441.62 20.64L441.42 20.81C439.92 22.11 437.66 22.04 436.27 20.62C427.96 12.09 416.34 6.79001 403.48 6.79001C378.2 6.79001 357.71 27.24 357.71 52.47C357.71 77.7 378.2 98.15 403.48 98.15C416.34 98.15 427.96 92.84 436.27 84.32C437.66 82.9 439.92 82.83 441.42 84.13L441.62 84.3L443.85 81.73L431.56 71.09L429.33 73.66V73.64Z" fill="#231F20"/>
<path d="M652.66 88.05V44.45L685.89 6.67001H672.1L641.06 41.96L613.61 10.77C613.41 10.54 613.57 10.18 613.88 10.18H617.02V6.68001H591.72V10.18H595.44C597.89 10.18 600.22 11.23 601.84 13.07L642.3 59.03V93.35C642.3 94.1 641.69 94.71 640.94 94.71H637.54V98.12H660.14V94.71H659.33C655.65 94.71 652.66 91.73 652.65 88.05H652.66Z" fill="#231F20"/>
</g>
<defs>
<clipPath id="clip0_166_1829">
<rect width="685.89" height="98.18" fill="white"/>
</clipPath>
</defs>
</svg>
