<svg width="55" height="21" viewBox="0 0 55 21" fill="none" xmlns="http://www.w3.org/2000/svg">
<rect x="23" y="5" width="32" height="16" fill="#DFDDD8"/>
<rect opacity="0.3" y="5" width="55" height="16" fill="#DFDDD8"/>
<rect x="53.9616" y="4.9762" width="1.03842" height="15.6278" fill="black"/>
<path d="M10.6683 18.144C7.94425 18.144 6.78025 16.344 6.78025 13.8C6.78025 11.256 7.94425 9.456 10.6683 9.456C13.3923 9.456 14.5683 11.244 14.5683 13.8C14.5683 16.356 13.3923 18.144 10.6683 18.144ZM10.6683 17.052C12.5883 17.052 13.3083 15.852 13.3083 13.8C13.3083 11.748 12.5883 10.548 10.6683 10.548C8.77225 10.548 8.02825 11.736 8.02825 13.8C8.02825 15.864 8.77225 17.052 10.6683 17.052ZM21.1942 18C19.1542 14.616 18.7582 14.292 17.6062 14.124V18H16.3942V9.6H19.5142C21.3742 9.6 22.3222 10.5 22.3222 11.928C22.3222 13.476 21.0862 14.568 19.3942 14.04L19.1662 13.98L19.1062 14.076C20.4382 14.784 21.0502 15.468 22.6582 18H21.1942ZM18.9862 13.548C20.2342 13.644 21.0742 13.068 21.0742 11.952C21.0742 11.04 20.5102 10.644 19.3222 10.644H17.6062V13.428L18.9862 13.548ZM24.3128 18V9.6H26.3768C29.7968 9.6 30.6608 11.484 30.6608 13.68C30.6608 16.38 29.4368 18 26.4728 18H24.3128ZM26.4848 16.92C28.4408 16.92 29.4128 16.068 29.4128 13.68C29.4128 11.292 28.1288 10.68 26.3648 10.68H25.5248V16.92H26.4848ZM32.4892 18V9.6H37.3852V10.68H33.7012V13.2H36.6532V14.208H33.7012V16.92H37.6132V18H32.4892ZM44.1414 18C42.1014 14.616 41.7054 14.292 40.5534 14.124V18H39.3414V9.6H42.4614C44.3214 9.6 45.2694 10.5 45.2694 11.928C45.2694 13.476 44.0334 14.568 42.3414 14.04L42.1134 13.98L42.0534 14.076C43.3854 14.784 43.9974 15.468 45.6054 18H44.1414ZM41.9334 13.548C43.1814 13.644 44.0214 13.068 44.0214 11.952C44.0214 11.04 43.4574 10.644 42.2694 10.644H40.5534V13.428L41.9334 13.548Z" fill="#0E0D0C"/>
</svg>
